<mxfile host="app.diagrams.net" agent="Mozilla/5.0 (Windows NT 10.0; Win64; x64) AppleWebKit/537.36 (KHTML, like Gecko) Chrome/134.0.0.0 Safari/537.36" version="26.1.1">
  <diagram name="Page-1" id="c7558073-3199-34d8-9f00-42111426c3f3">
    <mxGraphModel dx="1687" dy="878" grid="1" gridSize="10" guides="1" tooltips="1" connect="1" arrows="1" fold="1" page="1" pageScale="1" pageWidth="826" pageHeight="1169" background="none" math="0" shadow="0">
      <root>
        <mxCell id="0" />
        <mxCell id="1" parent="0" />
        <mxCell id="To8gybcfAh88a9-YpAY0-215" style="edgeStyle=orthogonalEdgeStyle;rounded=0;orthogonalLoop=1;jettySize=auto;html=1;exitX=0.5;exitY=1;exitDx=0;exitDy=0;" edge="1" parent="1" source="To8gybcfAh88a9-YpAY0-98">
          <mxGeometry relative="1" as="geometry">
            <mxPoint x="310.1428571428571" y="190" as="targetPoint" />
          </mxGeometry>
        </mxCell>
        <mxCell id="To8gybcfAh88a9-YpAY0-216" value="实例化" style="edgeLabel;html=1;align=center;verticalAlign=middle;resizable=0;points=[];" vertex="1" connectable="0" parent="To8gybcfAh88a9-YpAY0-215">
          <mxGeometry x="-0.2959" y="-1" relative="1" as="geometry">
            <mxPoint as="offset" />
          </mxGeometry>
        </mxCell>
        <mxCell id="To8gybcfAh88a9-YpAY0-98" value="业务接入层" style="rounded=1;whiteSpace=wrap;html=1;fillColor=#99FFFF;" vertex="1" parent="1">
          <mxGeometry x="140" y="110" width="340" height="40" as="geometry" />
        </mxCell>
        <mxCell id="To8gybcfAh88a9-YpAY0-104" value="" style="rounded=0;whiteSpace=wrap;html=1;points=[[0,0,0,0,0],[0,0.25,0,0,0],[0,0.5,0,0,0],[0,0.75,0,0,0],[0,1,0,0,0],[0.25,0,0,0,0],[0.25,1,0,0,0],[0.5,0,0,0,0],[0.5,1,0,0,0],[0.75,0,0,0,0],[0.75,1,0,0,0],[1,0,0,0,0],[1,0.25,0,0,0],[1,0.5,0,0,0],[1,0.75,0,0,0],[1,1,0,0,0]];fillColor=#d5e8d4;strokeColor=#82b366;" vertex="1" parent="1">
          <mxGeometry x="140" y="190" width="340" height="90" as="geometry" />
        </mxCell>
        <mxCell id="To8gybcfAh88a9-YpAY0-106" value="" style="endArrow=none;dashed=1;html=1;dashPattern=1 3;strokeWidth=2;rounded=0;" edge="1" parent="1" source="To8gybcfAh88a9-YpAY0-104">
          <mxGeometry width="50" height="50" relative="1" as="geometry">
            <mxPoint x="260" y="200" as="sourcePoint" />
            <mxPoint x="310" y="190" as="targetPoint" />
          </mxGeometry>
        </mxCell>
        <mxCell id="To8gybcfAh88a9-YpAY0-107" value="" style="endArrow=none;dashed=1;html=1;dashPattern=1 3;strokeWidth=2;rounded=0;exitX=0.5;exitY=1;exitDx=0;exitDy=0;exitPerimeter=0;" edge="1" parent="1" source="To8gybcfAh88a9-YpAY0-104">
          <mxGeometry width="50" height="50" relative="1" as="geometry">
            <mxPoint x="260" y="200" as="sourcePoint" />
            <mxPoint x="310" y="190" as="targetPoint" />
          </mxGeometry>
        </mxCell>
        <mxCell id="To8gybcfAh88a9-YpAY0-108" value="ua检测" style="rounded=1;whiteSpace=wrap;html=1;" vertex="1" parent="1">
          <mxGeometry x="160" y="220" width="120" height="30" as="geometry" />
        </mxCell>
        <mxCell id="To8gybcfAh88a9-YpAY0-109" value="入参初始化" style="rounded=1;whiteSpace=wrap;html=1;" vertex="1" parent="1">
          <mxGeometry x="330" y="220" width="120" height="30" as="geometry" />
        </mxCell>
        <mxCell id="To8gybcfAh88a9-YpAY0-113" value="初始化模块" style="text;html=1;align=center;verticalAlign=middle;resizable=0;points=[];autosize=1;strokeColor=none;fillColor=none;" vertex="1" parent="1">
          <mxGeometry x="35" y="220" width="80" height="30" as="geometry" />
        </mxCell>
        <mxCell id="To8gybcfAh88a9-YpAY0-116" value="信令管理" style="text;html=1;align=center;verticalAlign=middle;resizable=0;points=[];autosize=1;strokeColor=none;fillColor=none;" vertex="1" parent="1">
          <mxGeometry x="35" y="410" width="70" height="30" as="geometry" />
        </mxCell>
        <mxCell id="To8gybcfAh88a9-YpAY0-213" style="edgeStyle=orthogonalEdgeStyle;rounded=0;orthogonalLoop=1;jettySize=auto;html=1;exitX=0.5;exitY=1;exitDx=0;exitDy=0;entryX=0.5;entryY=0;entryDx=0;entryDy=0;" edge="1" parent="1">
          <mxGeometry relative="1" as="geometry">
            <mxPoint x="270" y="710" as="sourcePoint" />
            <mxPoint x="270" y="750" as="targetPoint" />
          </mxGeometry>
        </mxCell>
        <mxCell id="To8gybcfAh88a9-YpAY0-223" style="edgeStyle=orthogonalEdgeStyle;rounded=0;orthogonalLoop=1;jettySize=auto;html=1;exitX=1;exitY=0.5;exitDx=0;exitDy=0;entryX=1;entryY=0.5;entryDx=0;entryDy=0;" edge="1" parent="1" source="To8gybcfAh88a9-YpAY0-161" target="To8gybcfAh88a9-YpAY0-98">
          <mxGeometry relative="1" as="geometry">
            <Array as="points">
              <mxPoint x="610" y="505" />
              <mxPoint x="610" y="130" />
            </Array>
          </mxGeometry>
        </mxCell>
        <mxCell id="To8gybcfAh88a9-YpAY0-224" value="回调" style="edgeLabel;html=1;align=center;verticalAlign=middle;resizable=0;points=[];" vertex="1" connectable="0" parent="To8gybcfAh88a9-YpAY0-223">
          <mxGeometry x="0.0103" y="1" relative="1" as="geometry">
            <mxPoint as="offset" />
          </mxGeometry>
        </mxCell>
        <mxCell id="To8gybcfAh88a9-YpAY0-161" value="" style="rounded=0;whiteSpace=wrap;html=1;dashed=1;" vertex="1" parent="1">
          <mxGeometry x="120" y="300" width="380" height="410" as="geometry" />
        </mxCell>
        <mxCell id="To8gybcfAh88a9-YpAY0-163" value="web-singal-sdk" style="rounded=0;whiteSpace=wrap;html=1;fillColor=#dae8fc;strokeColor=#6c8ebf;" vertex="1" parent="1">
          <mxGeometry x="170" y="337.5" width="120" height="60" as="geometry" />
        </mxCell>
        <mxCell id="To8gybcfAh88a9-YpAY0-165" value="" style="rounded=0;whiteSpace=wrap;html=1;fillColor=#ffe6cc;strokeColor=#d79b00;" vertex="1" parent="1">
          <mxGeometry x="160" y="440" width="320" height="60" as="geometry" />
        </mxCell>
        <mxCell id="To8gybcfAh88a9-YpAY0-166" value="Taf请求封装方法" style="rounded=1;whiteSpace=wrap;html=1;" vertex="1" parent="1">
          <mxGeometry x="180" y="455" width="120" height="30" as="geometry" />
        </mxCell>
        <mxCell id="To8gybcfAh88a9-YpAY0-167" value="进组和监听" style="rounded=1;whiteSpace=wrap;html=1;" vertex="1" parent="1">
          <mxGeometry x="350" y="455" width="120" height="30" as="geometry" />
        </mxCell>
        <mxCell id="To8gybcfAh88a9-YpAY0-169" value="" style="rounded=0;whiteSpace=wrap;html=1;fillColor=#ffe6cc;strokeColor=#d79b00;" vertex="1" parent="1">
          <mxGeometry x="140" y="330" width="340" height="75" as="geometry" />
        </mxCell>
        <mxCell id="To8gybcfAh88a9-YpAY0-170" value="web-singal-sdk" style="rounded=0;whiteSpace=wrap;html=1;fillColor=#dae8fc;strokeColor=#6c8ebf;" vertex="1" parent="1">
          <mxGeometry x="160" y="337.5" width="120" height="60" as="geometry" />
        </mxCell>
        <mxCell id="To8gybcfAh88a9-YpAY0-171" value="APP信令通道" style="rounded=0;whiteSpace=wrap;html=1;fillColor=#dae8fc;strokeColor=#6c8ebf;" vertex="1" parent="1">
          <mxGeometry x="330" y="337.5" width="120" height="60" as="geometry" />
        </mxCell>
        <mxCell id="To8gybcfAh88a9-YpAY0-172" value="" style="rounded=0;whiteSpace=wrap;html=1;fillColor=#ffe6cc;strokeColor=#d79b00;" vertex="1" parent="1">
          <mxGeometry x="140" y="440" width="340" height="60" as="geometry" />
        </mxCell>
        <mxCell id="To8gybcfAh88a9-YpAY0-173" value="Taf请求封装方法" style="rounded=1;whiteSpace=wrap;html=1;" vertex="1" parent="1">
          <mxGeometry x="160" y="455" width="120" height="30" as="geometry" />
        </mxCell>
        <mxCell id="To8gybcfAh88a9-YpAY0-174" value="进组和监听" style="rounded=1;whiteSpace=wrap;html=1;" vertex="1" parent="1">
          <mxGeometry x="330" y="455" width="120" height="30" as="geometry" />
        </mxCell>
        <mxCell id="To8gybcfAh88a9-YpAY0-198" value="" style="whiteSpace=wrap;html=1;rounded=1;" vertex="1" parent="1">
          <mxGeometry x="160" y="530" width="120" height="130" as="geometry" />
        </mxCell>
        <mxCell id="To8gybcfAh88a9-YpAY0-199" value="mock数据" style="rounded=1;whiteSpace=wrap;html=1;" vertex="1" parent="1">
          <mxGeometry x="180" y="540" width="80" height="30" as="geometry" />
        </mxCell>
        <mxCell id="To8gybcfAh88a9-YpAY0-200" value="数据解包" style="rounded=1;whiteSpace=wrap;html=1;" vertex="1" parent="1">
          <mxGeometry x="180" y="580" width="80" height="30" as="geometry" />
        </mxCell>
        <mxCell id="To8gybcfAh88a9-YpAY0-201" value="统一格式" style="rounded=1;whiteSpace=wrap;html=1;" vertex="1" parent="1">
          <mxGeometry x="180" y="620" width="80" height="30" as="geometry" />
        </mxCell>
        <mxCell id="To8gybcfAh88a9-YpAY0-205" value="" style="whiteSpace=wrap;html=1;rounded=1;" vertex="1" parent="1">
          <mxGeometry x="330" y="530" width="120" height="130" as="geometry" />
        </mxCell>
        <mxCell id="To8gybcfAh88a9-YpAY0-206" value="mock数据" style="rounded=1;whiteSpace=wrap;html=1;" vertex="1" parent="1">
          <mxGeometry x="350" y="560" width="80" height="30" as="geometry" />
        </mxCell>
        <mxCell id="To8gybcfAh88a9-YpAY0-207" value="监听回调" style="rounded=1;whiteSpace=wrap;html=1;" vertex="1" parent="1">
          <mxGeometry x="350" y="600" width="80" height="30" as="geometry" />
        </mxCell>
        <mxCell id="To8gybcfAh88a9-YpAY0-222" style="edgeStyle=orthogonalEdgeStyle;rounded=0;orthogonalLoop=1;jettySize=auto;html=1;exitX=0.5;exitY=0;exitDx=0;exitDy=0;entryX=0.5;entryY=1;entryDx=0;entryDy=0;" edge="1" parent="1">
          <mxGeometry relative="1" as="geometry">
            <mxPoint x="319.83" y="750" as="sourcePoint" />
            <mxPoint x="319.83" y="710" as="targetPoint" />
          </mxGeometry>
        </mxCell>
        <mxCell id="To8gybcfAh88a9-YpAY0-210" value="" style="rounded=0;whiteSpace=wrap;html=1;dashed=1;" vertex="1" parent="1">
          <mxGeometry x="120" y="750" width="380" height="190" as="geometry" />
        </mxCell>
        <mxCell id="To8gybcfAh88a9-YpAY0-211" value="TAF服务" style="rounded=0;whiteSpace=wrap;html=1;fillColor=#ffe6cc;strokeColor=#d79b00;" vertex="1" parent="1">
          <mxGeometry x="140" y="770" width="340" height="60" as="geometry" />
        </mxCell>
        <mxCell id="To8gybcfAh88a9-YpAY0-212" value="业务服务" style="rounded=0;whiteSpace=wrap;html=1;fillColor=#ffe6cc;strokeColor=#d79b00;" vertex="1" parent="1">
          <mxGeometry x="140" y="860" width="340" height="60" as="geometry" />
        </mxCell>
        <mxCell id="To8gybcfAh88a9-YpAY0-214" style="edgeStyle=orthogonalEdgeStyle;rounded=0;orthogonalLoop=1;jettySize=auto;html=1;exitX=0.5;exitY=1;exitDx=0;exitDy=0;exitPerimeter=0;entryX=0.499;entryY=-0.006;entryDx=0;entryDy=0;entryPerimeter=0;" edge="1" parent="1" source="To8gybcfAh88a9-YpAY0-104" target="To8gybcfAh88a9-YpAY0-161">
          <mxGeometry relative="1" as="geometry" />
        </mxCell>
      </root>
    </mxGraphModel>
  </diagram>
</mxfile>
